<?xml version="1.0" encoding="utf-8"?>
<!-- Generator: Adobe Illustrator 27.1.1, SVG Export Plug-In . SVG Version: 6.00 Build 0)  -->
<svg version="1.1" id="Ebene_1" xmlns="http://www.w3.org/2000/svg" xmlns:xlink="http://www.w3.org/1999/xlink" x="0px" y="0px"
	 viewBox="0 0 48 48" enable-background="new 0 0 48 48" xml:space="preserve">
<g id="password">
	<path fill="#95CAEB" d="M5,23h38c0.552,0,1,0.448,1,1v18c0,0.552-0.448,1-1,1H5c-0.552,0-1-0.448-1-1V24C4,23.448,4.448,23,5,23z"
		/>
	<g>
		<path fill="#1474C4" d="M15.5,28h17c3.314,0,6,2.686,6,6l0,0c0,3.314-2.686,6-6,6h-17c-3.314,0-6-2.686-6-6l0,0
			C9.5,30.686,12.186,28,15.5,28z"/>
		<path fill="#FFFFFF" d="M19.414,34.815l-1.407-0.811l1.425-0.818c0.239-0.138,0.322-0.443,0.185-0.683
			c-0.139-0.241-0.446-0.321-0.683-0.185L17.5,33.142l0.001-1.64c0-0.276-0.224-0.5-0.5-0.5s-0.5,0.224-0.5,0.5L16.5,33.135
			l-1.415-0.816c-0.241-0.139-0.545-0.057-0.684,0.184c-0.138,0.239-0.056,0.545,0.184,0.683l1.418,0.817l-1.427,0.819
			c-0.239,0.138-0.322,0.443-0.185,0.683c0.093,0.161,0.261,0.251,0.434,0.251c0.085,0,0.171-0.021,0.249-0.066l1.425-0.819
			L16.498,36.5c0,0.276,0.224,0.5,0.5,0.5s0.5-0.224,0.5-0.5l0.001-1.634l1.415,0.816c0.079,0.045,0.165,0.067,0.25,0.067
			c0.173,0,0.341-0.09,0.434-0.25C19.735,35.258,19.653,34.953,19.414,34.815z"/>
		<path fill="#FFFFFF" d="M26.421,34.818l-1.407-0.811l1.425-0.819c0.239-0.138,0.322-0.443,0.185-0.683
			c-0.139-0.241-0.446-0.321-0.683-0.185l-1.435,0.824l0.001-1.641c0-0.276-0.224-0.5-0.5-0.5s-0.5,0.224-0.5,0.5l-0.001,1.633
			l-1.415-0.816c-0.241-0.139-0.546-0.057-0.684,0.184c-0.138,0.239-0.056,0.545,0.184,0.683l1.418,0.818l-1.426,0.819
			c-0.239,0.138-0.322,0.443-0.185,0.683c0.093,0.161,0.261,0.251,0.434,0.251c0.085,0,0.171-0.021,0.249-0.066l1.424-0.818
			l-0.001,1.629c0,0.276,0.224,0.5,0.5,0.5s0.5-0.224,0.5-0.5l0.001-1.634l1.415,0.816c0.079,0.045,0.165,0.067,0.25,0.067
			c0.173,0,0.341-0.09,0.434-0.25C26.742,35.261,26.66,34.956,26.421,34.818z"/>
		<path fill="#FFFFFF" d="M33.415,34.817l-1.407-0.811l1.425-0.819c0.239-0.138,0.322-0.443,0.185-0.683
			c-0.139-0.241-0.446-0.321-0.683-0.185L31.5,33.143v-1.641c0-0.276-0.224-0.5-0.5-0.5s-0.5,0.224-0.5,0.5v1.633l-1.415-0.816
			c-0.241-0.139-0.545-0.057-0.684,0.184c-0.138,0.239-0.056,0.545,0.184,0.683l1.417,0.817l-1.426,0.819
			c-0.239,0.138-0.322,0.443-0.185,0.683c0.093,0.161,0.261,0.251,0.434,0.251c0.085,0,0.171-0.021,0.249-0.066l1.425-0.819V36.5
			c0,0.276,0.224,0.5,0.5,0.5s0.5-0.224,0.5-0.5v-1.634l1.415,0.816c0.079,0.045,0.165,0.067,0.25,0.067
			c0.173,0,0.341-0.09,0.434-0.25C33.736,35.261,33.654,34.955,33.415,34.817z"/>
	</g>
	<g>
		<path fill="#1474C4" d="M20.02,12.991L20.02,12.991c-0.276,0-0.5-0.225-0.5-0.5l0.004-2.973c0-0.039,0.025-4.255,4.481-4.488
			c0.001,0,0.002,0,0.002,0c1.57,0,4.493,0.954,4.513,4.562h-0.004c0.044,0.376,0.035,1.154,0.015,2.905
			c-0.003,0.276-0.271,0.488-0.506,0.494c-0.276-0.003-0.497-0.229-0.494-0.506c0.014-1.189,0.019-2.515,0.002-2.779
			C27.525,9.67,27.52,9.634,27.52,9.597c-0.019-3.527-3.347-3.568-3.488-3.568c-3.467,0.182-3.508,3.353-3.508,3.488l-0.004,2.975
			C20.52,12.768,20.295,12.991,20.02,12.991z"/>
		<path fill="#001B41" d="M32.031,27.98h-16c-1.105,0-2-0.895-2-2v-14h20v14C34.031,27.085,33.136,27.98,32.031,27.98z"/>
	</g>
	<path fill="#95CAEB" d="M27.031,18c0-1.654-1.346-3-3-3s-3,1.346-3,3c0,1.483,1.084,2.71,2.5,2.949V24.5c0,0.276,0.224,0.5,0.5,0.5
		s0.5-0.224,0.5-0.5v-3.551C25.947,20.71,27.031,19.483,27.031,18z M24.031,20c-1.103,0-2-0.897-2-2s0.897-2,2-2s2,0.897,2,2
		S25.134,20,24.031,20z"/>
</g>
</svg>
